<?xml version="1.0" encoding="UTF-8" standalone="no"?>
<svg
   width="11"
   height="11"
   version="1.1"
   id="svg5142"
   sodipodi:docname="icon-plus-hover.svg"
   inkscape:version="1.2 (dc2aedaf03, 2022-05-15)"
   xmlns:inkscape="http://www.inkscape.org/namespaces/inkscape"
   xmlns:sodipodi="http://sodipodi.sourceforge.net/DTD/sodipodi-0.dtd"
   xmlns="http://www.w3.org/2000/svg"
   xmlns:svg="http://www.w3.org/2000/svg">
  <defs
     id="defs5146" />
  <sodipodi:namedview
     id="namedview5144"
     pagecolor="#ffffff"
     bordercolor="#000000"
     borderopacity="0.25"
     inkscape:showpageshadow="2"
     inkscape:pageopacity="0.0"
     inkscape:pagecheckerboard="0"
     inkscape:deskcolor="#d1d1d1"
     showgrid="false"
     inkscape:zoom="77"
     inkscape:cx="6.0844156"
     inkscape:cy="5.5064935"
     inkscape:window-width="1920"
     inkscape:window-height="1027"
     inkscape:window-x="1912"
     inkscape:window-y="-8"
     inkscape:window-maximized="1"
     inkscape:current-layer="svg5142" />
  <path
     d="M6.33 10.896c.137 0 .255-.05.354-.149.1-.1.149-.217.149-.354V7.004h3.315c.136 0 .254-.05.354-.149.099-.1.148-.217.148-.354V5.272a.483.483 0 0 0-.148-.354.483.483 0 0 0-.354-.149H6.833V1.4a.483.483 0 0 0-.149-.354.483.483 0 0 0-.354-.149H4.915a.483.483 0 0 0-.354.149c-.1.1-.149.217-.149.354v3.37H1.08a.483.483 0 0 0-.354.15c-.1.099-.149.217-.149.353v1.23c0 .136.05.254.149.353.1.1.217.149.354.149h3.333v3.39c0 .136.05.254.15.353.098.1.216.149.353.149H6.33Z"
     fill="#C5C6EF"
     id="path5140"
     style="fill:#5356b6;fill-opacity:1" />
</svg>
